<svg width="128" height="129" viewBox="0 0 128 129" fill="none" xmlns="http://www.w3.org/2000/svg">
<rect width="128" height="128" transform="translate(0 0.706543)" fill="#1E293B"/>
<path d="M84.7501 85.4856C78.9172 85.3913 74.2345 82.8523 71.8727 81.0154C70.4722 84.9018 68.1942 87.7321 66.6242 89.413C67.6674 90.0901 70.4452 91.5999 74.2345 93.0869C78.6958 94.6615 81.8795 95.1093 84.6057 95.1093C88.1315 95.1093 91.3394 94.5891 94.2293 93.5487C97.1193 92.489 99.6433 91.0247 101.801 89.1559C103.959 87.2677 105.703 85.0906 107.032 82.6245C108.381 80.1583 109.257 77.5188 109.662 74.7059L98.8533 74.6481C98.5258 76.3821 97.9285 77.9234 97.0615 79.2721C96.2138 80.6207 95.1638 81.7575 93.9114 82.6823C92.6784 83.6071 91.2815 84.3103 89.7209 84.792C88.1796 85.2544 86.5227 85.4856 84.7501 85.4856Z" fill="#FB923C"/>
<path d="M70.9796 53.6885C73.5134 47.5805 78.1045 43.9274 84.7791 43.9274C86.5901 43.9274 88.2759 44.1779 89.8365 44.6788C91.4164 45.1605 92.8229 45.883 94.0559 46.8463C95.289 47.8096 96.3198 48.9849 97.1482 50.3721C97.9767 51.74 98.5451 53.3103 98.8533 55.0828H109.662C109.219 51.7882 108.275 48.8597 106.83 46.2972C105.404 43.7155 103.583 41.5383 101.368 39.7658C99.152 37.974 96.628 36.6157 93.7958 35.6909C90.9636 34.7661 87.9003 34.3037 84.6057 34.3037C72.3739 34.3037 62.9782 41.8395 59.6922 53.6885H70.9796Z" fill="#FB923C"/>
<path d="M75.8779 76.5387C75.8779 76.5387 75.8779 79.7754 79.0569 79.7754C82.2358 79.7754 82.2359 76.5387 82.2359 76.5387V53.0739C82.2359 53.0739 82.2358 49.8371 79.0569 49.8371C75.8779 49.8371 75.8779 53.0739 75.8779 53.0739V76.5387Z" fill="white"/>
<path d="M53.6249 53.0897C53.6249 53.0897 53.6249 49.8529 50.4459 49.8529C47.2669 49.8529 47.2669 53.0897 47.2669 53.0897V64.8221V76.5545C47.2669 76.5545 47.2669 79.7912 50.4459 79.7912C53.6249 79.7912 53.6249 76.5545 53.6249 76.5545V53.0897Z" fill="white"/>
<path d="M59.0292 56.5567V73.0875H70.4736V56.5567H59.0292Z" fill="white"/>
<path d="M45.5907 43.9274C42.4117 43.9274 39.5795 44.727 37.0941 46.3261C34.6087 47.9252 32.6531 50.2758 31.2274 53.3777C29.8209 56.4604 29.1177 60.2174 29.1177 64.6487C29.1177 69.1185 29.8209 72.9044 31.2274 76.0064C32.6339 79.1083 34.5894 81.4685 37.0941 83.0869C39.5988 84.686 42.508 85.4856 45.8219 85.4856C48.8275 85.4856 51.4285 84.9076 53.6249 83.7516C56.6687 82.1635 58.0657 79.4252 59.045 76.1509H70.3869L70.3926 76.1632C69.8752 78.8821 68.9678 81.3538 67.6703 83.5782C66.935 84.8386 66.1058 86.0006 65.1826 87.0642C63.3965 89.1221 61.2586 90.8116 58.7691 92.1326C54.9928 94.117 50.6578 95.1093 45.7641 95.1093C40.3116 95.1093 35.5239 93.8858 31.4008 91.439C27.297 88.9728 24.0891 85.4759 21.7771 80.9483C19.4844 76.4013 18.338 71.0067 18.338 64.7643C18.338 59.9862 19.0123 55.7186 20.361 51.9616C21.7289 48.2046 23.6363 45.016 26.0832 42.3957C28.5301 39.7562 31.4008 37.7524 34.6954 36.3845C37.99 34.9973 41.5736 34.3037 45.4462 34.3037C48.7215 34.3037 51.7753 34.7854 54.6075 35.7487C57.6614 36.7667 61.0391 38.2322 63.4751 40.3395C61.3174 42.7764 59.8355 45.648 58.3999 48.5192C54.4702 46.1704 50.2846 43.9274 45.5907 43.9274Z" fill="white"/>
</svg>
