<?xml version="1.0" standalone="no"?>
<!DOCTYPE svg PUBLIC "-//W3C//DTD SVG 20010904//EN"
 "http://www.w3.org/TR/2001/REC-SVG-20010904/DTD/svg10.dtd">
<svg version="1.0" xmlns="http://www.w3.org/2000/svg"
 width="522.000000pt" height="522.000000pt" viewBox="0 0 522.000000 522.000000"
 preserveAspectRatio="xMidYMid meet">
<metadata>
Created by potrace 1.14, written by Peter Selinger 2001-2017
</metadata>
<g transform="translate(0.000000,522.000000) scale(0.100000,-0.100000)"
fill="#000000" stroke="none">
<path d="M1305 4334 c-225 -35 -445 -119 -616 -235 -301 -205 -523 -533 -619
-914 -49 -193 -64 -318 -64 -550 -1 -115 2 -244 6 -285 40 -422 204 -794 464
-1054 77 -77 233 -199 274 -214 8 -3 31 -15 50 -27 129 -78 365 -148 574 -171
125 -14 350 -8 486 12 63 10 224 53 293 79 115 43 267 126 340 185 213 172
344 358 430 606 20 56 38 122 42 147 l7 45 -323 -2 -322 -1 -27 -75 c-47 -131
-92 -202 -174 -278 -132 -120 -339 -182 -585 -176 -392 11 -690 229 -833 611
-11 32 -25 73 -30 93 -5 19 -14 53 -19 75 -10 38 -13 54 -24 128 -23 164 -23
451 0 562 2 11 7 38 10 60 15 107 66 257 123 365 214 403 636 569 1087 430 73
-23 264 -112 372 -174 l63 -36 12 23 c6 12 27 51 45 87 18 36 39 74 46 85 83
134 114 183 127 198 8 10 25 30 37 45 12 14 20 29 17 33 -12 20 -179 122 -268
164 -158 74 -313 123 -516 160 -72 14 -394 13 -485 -1z"/>
<path d="M3615 4343 c-413 -51 -747 -240 -987 -558 -34 -43 -68 -93 -78 -110
-9 -16 -31 -55 -48 -85 -37 -66 -118 -266 -127 -313 l-7 -34 319 0 318 0 48
91 c172 325 421 473 777 461 286 -9 500 -115 646 -320 59 -83 118 -228 123
-301 1 -8 93 -11 311 -11 l309 0 -5 36 c-7 54 -44 213 -55 236 -5 11 -15 38
-23 60 -21 60 -66 155 -96 200 -15 22 -29 45 -31 52 -8 23 -129 170 -181 219
-82 77 -259 204 -285 204 -3 0 -14 6 -22 14 -52 44 -320 127 -486 149 -92 13
-348 19 -420 10z"/>
<path d="M3424 3458 c-52 -11 -106 -61 -122 -115 -9 -30 -12 -224 -12 -742 0
-682 1 -704 20 -749 30 -69 76 -97 159 -97 85 0 130 26 161 93 l22 47 1 712 0
713 -25 47 c-37 74 -116 109 -204 91z"/>
<path d="M1754 3446 c-38 -17 -79 -68 -91 -116 -6 -20 -9 -333 -9 -740 1 -669
2 -707 20 -743 28 -58 75 -88 144 -94 99 -9 170 42 191 138 13 61 11 1403 -2
1445 -15 51 -63 102 -105 114 -50 14 -111 12 -148 -4z"/>
<path d="M2329 3076 c-1 -1 -2 -213 -2 -472 l-2 -471 328 0 327 1 0 472 0 472
-325 -1 c-179 0 -325 -1 -326 -1z"/>
<path d="M4605 2035 c-62 -198 -100 -267 -200 -371 -116 -120 -247 -188 -429
-224 -68 -14 -237 -17 -316 -6 -158 22 -343 86 -485 168 -42 24 -45 26 -85 57
l-25 20 -53 -107 c-29 -59 -58 -116 -65 -127 -49 -78 -100 -148 -150 -202 -16
-17 -28 -36 -25 -43 10 -30 352 -189 513 -239 206 -63 339 -85 515 -85 139 1
288 17 395 44 22 6 47 12 55 14 47 13 176 64 245 99 311 155 545 422 663 757
28 79 66 239 59 246 -2 2 -140 5 -306 7 -204 2 -304 -1 -306 -8z"/>
</g>
</svg>
