<svg width="128" height="128" viewBox="0 0 128 128" fill="none" xmlns="http://www.w3.org/2000/svg">
<rect width="128" height="128" rx="33" fill="#1E293B"/>
<path d="M87.6304 87.6932C80.9878 87.5857 75.6552 84.6907 72.9655 82.5961C71.3706 87.0276 68.7764 90.2548 66.9885 92.1714C68.1765 92.9435 71.3398 94.665 75.6552 96.3606C80.7356 98.156 84.3613 98.6666 87.4658 98.6666C91.481 98.6666 95.1342 98.0734 98.4253 96.8871C101.716 95.6788 104.591 94.0092 107.048 91.8782C109.505 89.7253 111.491 87.2428 113.005 84.4308C114.541 81.6188 115.539 78.6091 116 75.4017L103.691 75.3358C103.318 77.313 102.638 79.0705 101.651 80.6083C100.685 82.1461 99.4895 83.4423 98.0633 84.4968C96.6591 85.5513 95.0684 86.3531 93.2911 86.9023C91.5359 87.4296 89.6489 87.6932 87.6304 87.6932Z" fill="#FB923C"/>
<path d="M71.9484 51.4367C74.8339 44.472 80.0623 40.3066 87.6633 40.3066C89.7257 40.3066 91.6456 40.5922 93.4228 41.1634C95.2219 41.7126 96.8236 42.5365 98.2278 43.6349C99.6321 44.7333 100.806 46.0734 101.749 47.6552C102.693 49.215 103.34 51.0054 103.691 53.0265H116C115.495 49.2699 114.42 45.9306 112.775 43.0088C111.151 40.065 109.078 37.5825 106.554 35.5614C104.031 33.5183 101.157 31.9695 97.9316 30.915C94.7063 29.8605 91.2177 29.3333 87.4658 29.3333C73.5363 29.3333 62.8364 37.9259 59.0943 51.4367H71.9484Z" fill="#FB923C"/>
<path d="M77.5266 77.4915C77.5266 77.4915 77.5266 81.1822 81.1468 81.1822C84.7671 81.1822 84.7671 77.4915 84.7671 77.4915V50.7359C84.7671 50.7359 84.7671 47.0452 81.1468 47.0452C77.5266 47.0452 77.5266 50.7359 77.5266 50.7359V77.4915Z" fill="white"/>
<path d="M52.1848 50.7539C52.1848 50.7539 52.1848 47.0632 48.5646 47.0632C44.9443 47.0632 44.9443 50.7539 44.9443 50.7539V64.1317V77.5096C44.9443 77.5096 44.9443 81.2003 48.5646 81.2003C52.1848 81.2003 52.1848 77.5096 52.1848 77.5096V50.7539Z" fill="white"/>
<path d="M58.3392 54.7071V73.5563H71.3722V54.7071H58.3392Z" fill="white"/>
<path d="M43.0354 40.3066C39.4152 40.3066 36.1899 41.2183 33.3595 43.0417C30.5291 44.8651 28.3021 47.5453 26.6785 51.0823C25.0768 54.5973 24.276 58.8812 24.276 63.934C24.276 69.0308 25.0768 73.3476 26.6785 76.8846C28.2802 80.4216 30.5072 83.1127 33.3595 84.9581C36.2118 86.7815 39.5249 87.6932 43.2987 87.6932C46.7215 87.6932 49.6835 87.0341 52.1848 85.716C55.6511 83.9052 57.242 80.7829 58.3573 77.0494H71.2734L71.2799 77.0634C70.6908 80.1637 69.6574 82.982 68.1798 85.5183C67.3424 86.9555 66.3981 88.2805 65.3468 89.4933C63.3128 91.8398 60.8782 93.7662 58.043 95.2724C53.7426 97.5352 48.8059 98.6666 43.2329 98.6666C37.0236 98.6666 31.5713 97.2716 26.876 94.4815C22.2025 91.6695 18.5494 87.6822 15.9165 82.5196C13.3055 77.3349 12 71.1837 12 64.0658C12 58.6176 12.7679 53.7515 14.3038 49.4676C15.8616 45.1837 18.0338 41.5479 20.8203 38.5601C23.6068 35.5504 26.876 33.2657 30.6278 31.7059C34.3797 30.1241 38.4608 29.3333 42.8709 29.3333C46.6008 29.3333 50.0785 29.8825 53.3038 30.9809C56.7816 32.1417 60.6282 33.8127 63.4023 36.2155C60.9451 38.9942 59.2575 42.2686 57.6226 45.5424C53.1475 42.8642 48.3809 40.3066 43.0354 40.3066Z" fill="white"/>
</svg>
