<svg width="275" height="154" viewBox="0 0 275 154" fill="none" xmlns="http://www.w3.org/2000/svg">
<path fill-rule="evenodd" clip-rule="evenodd" d="M0.143365 119.859C0.246868 82.5764 1.57168 21.1836 2.33656 18.3071C3.51773 13.8609 10.0995 5.46638 14.1709 3.21435C18.7734 0.668541 27.4082 -0.514876 32.7368 0.669833C39.0008 2.06334 46.5939 8.07046 49.3813 13.8387C50.5076 16.168 51.6128 20.6312 51.8377 23.7557C52.6414 34.8934 50.8247 127.218 49.7148 131.684C47.4821 140.669 39.5544 147.938 30.1271 149.647C22.2281 151.078 16.3248 149.592 9.99249 144.578C2.33286 138.513 0.107918 132.928 0.143365 119.859ZM61.0624 123.737C61.1263 122.063 61.4136 99.355 61.7004 73.2745C61.9865 47.1935 62.3638 25.6285 62.5367 25.3522C62.711 25.0757 69.7035 24.958 78.0769 25.0905C92.2541 25.3147 93.2914 25.4867 93.1769 27.5951C93.1088 28.8409 92.7729 51.6631 92.4304 78.3117C92.0886 104.961 91.4658 126.889 91.0477 127.04C90.629 127.192 83.6844 127.194 75.616 127.047L60.9447 126.779L61.0624 123.737ZM102.266 125.596C102.159 124.572 102.367 101.603 102.729 74.553C103.091 47.5022 103.501 25.3704 103.64 25.372C131.065 25.5439 171.836 26.5592 172.155 27.0773C172.741 28.0272 171.396 128.291 170.798 128.315C170.54 128.325 155.059 128.136 136.395 127.895C108.212 127.531 102.428 127.141 102.266 125.596ZM181.832 128.216C181.629 128.056 181.736 105.18 182.068 77.3819L182.672 26.8397L186.167 26.7155C192.22 26.5005 212.628 26.9617 213.085 27.3237C213.624 27.7501 212.417 125.78 211.851 127.586C211.614 128.347 205.409 128.804 196.822 128.694C188.78 128.591 182.033 128.375 181.832 128.216ZM224.536 21.7784C224.685 21.354 224.859 20.9385 225.065 20.3285C227.144 14.1863 232.444 8.27925 238.367 5.4988C254.355 -2.00323 272.824 8.66424 274.284 26.2421C275.071 35.7252 273.171 130.096 272.106 134.38C270.384 141.312 264.719 147.927 257.9 150.969C244.217 157.074 227.979 149.913 223.554 135.822C222.835 133.529 222.58 109.525 222.966 80.2837C223.661 27.4235 223.607 24.4284 224.536 21.7784Z" fill="black"/>
</svg>
