<svg xmlns="http://www.w3.org/2000/svg" width="174" height="116" fill="none" viewBox="0 0 174 116"><path fill="#FB923C" d="M126.535 97.5171C115.422 97.3375 106.5 92.5 102 89C99.3315 96.4049 94.9913 101.797 92 105C93.9876 106.29 99.2801 109.167 106.5 112C115 115 121.066 115.853 126.26 115.853C132.978 115.853 139.09 114.862 144.596 112.88C150.103 110.861 154.911 108.071 159.023 104.51C163.134 100.913 166.456 96.7646 168.989 92.0658C171.559 87.3671 173.229 82.338 174 76.9785L153.406 76.8684C152.782 80.1722 151.644 83.1089 149.992 85.6785C148.377 88.2481 146.377 90.4139 143.991 92.176C141.641 93.938 138.98 95.2779 136.006 96.1956C133.07 97.0766 129.913 97.5171 126.535 97.5171Z"/><path fill="#FB923C" d="M100.298 36.934C105.126 25.2963 113.873 18.3361 126.591 18.3361C130.041 18.3361 133.253 18.8133 136.227 19.7677C139.237 20.6854 141.916 22.062 144.266 23.8975C146.615 25.7329 148.579 27.9722 150.158 30.6152C151.736 33.2215 152.819 36.2133 153.406 39.5905H174C173.156 33.3133 171.357 27.7336 168.604 22.8513C165.887 17.9323 162.418 13.7842 158.197 10.407C153.975 6.99304 149.166 4.40507 143.77 2.64304C138.374 0.881012 132.537 0 126.26 0C102.955 0 85.0532 14.358 78.7924 36.934H100.298Z"/><path fill="#fff" d="M109.631 80.4705C109.631 80.4705 109.631 86.6375 115.688 86.6375C121.745 86.6375 121.745 80.4705 121.745 80.4705V35.7629C121.745 35.7629 121.745 29.5959 115.688 29.5959C109.631 29.5959 109.631 35.7629 109.631 35.7629V80.4705Z"/><path fill="#fff" d="M67.2323 35.793C67.2323 35.793 67.2323 29.626 61.1753 29.626C55.1184 29.626 55.1184 35.793 55.1184 35.793V58.1468V80.5006C55.1184 80.5006 55.1184 86.6677 61.1753 86.6677C67.2323 86.6677 67.2323 80.5006 67.2323 80.5006V35.793Z"/><path fill="#fff" d="M77.5291 42.3987V73.8949H99.3342V42.3987H77.5291Z"/><path fill="#fff" d="M51.9247 18.3361C45.8677 18.3361 40.4715 19.8595 35.7361 22.9063C31.0006 25.9532 27.2747 30.4316 24.5582 36.3418C21.8785 42.2152 20.5386 49.3734 20.5386 57.8165C20.5386 66.3329 21.8785 73.5462 24.5582 79.4563C27.238 85.3665 30.9639 89.8633 35.7361 92.9468C40.5082 95.9937 46.0513 97.5171 52.3652 97.5171C58.0918 97.5171 63.0475 96.4158 67.2323 94.2133C73.0317 91.1875 75.6933 85.9702 77.5593 79.7317H99.169L99.1798 79.7551C98.1942 84.9355 96.4653 89.6448 93.993 93.8829C92.5921 96.2844 91.0122 98.4985 89.2533 100.525C85.8502 104.446 81.7769 107.665 77.0335 110.182C69.8386 113.963 61.5791 115.853 52.2551 115.853C41.8665 115.853 32.7443 113.522 24.8886 108.86C17.0696 104.161 10.9576 97.4987 6.55253 88.8722C2.18418 80.2089 0 69.9304 0 58.0367C0 48.9329 1.28481 40.8019 3.85443 33.6437C6.46076 26.4854 10.0949 20.4101 14.757 15.4177C19.419 10.3886 24.8886 6.57089 31.1658 3.96456C37.443 1.32152 44.2709 0 51.6494 0C57.8899 0 63.7082 0.917722 69.1044 2.75317C74.9231 4.69272 81.3587 7.48498 86 11.5C81.8889 16.143 79.0654 21.6144 76.3302 27.0849C68.8429 22.6097 60.8681 18.3361 51.9247 18.3361Z"/></svg>