<svg width="182" height="124" viewBox="0 0 182 124" fill="none" xmlns="http://www.w3.org/2000/svg">
<g filter="url(#filter0_d_251_2)">
<path d="M130.535 97.5171C119.422 97.3375 110.5 92.5 106 89C103.332 96.4049 98.9913 101.797 96 105C97.9876 106.29 103.28 109.167 110.5 112C119 115 125.066 115.853 130.26 115.853C136.978 115.853 143.09 114.862 148.596 112.88C154.103 110.861 158.911 108.071 163.023 104.51C167.134 100.913 170.456 96.7646 172.989 92.0658C175.559 87.3671 177.229 82.338 178 76.9785L157.406 76.8684C156.782 80.1722 155.644 83.1089 153.992 85.6785C152.377 88.2481 150.377 90.4139 147.991 92.176C145.641 93.938 142.98 95.2779 140.006 96.1956C137.07 97.0766 133.913 97.5171 130.535 97.5171Z" fill="#FB923C"/>
<path d="M104.298 36.934C109.126 25.2963 117.873 18.3361 130.591 18.3361C134.041 18.3361 137.253 18.8133 140.227 19.7677C143.237 20.6854 145.916 22.062 148.266 23.8975C150.615 25.7329 152.579 27.9722 154.158 30.6152C155.736 33.2215 156.819 36.2133 157.406 39.5905H178C177.156 33.3133 175.357 27.7336 172.604 22.8513C169.887 17.9323 166.418 13.7842 162.197 10.407C157.975 6.99304 153.166 4.40507 147.77 2.64304C142.374 0.881012 136.537 0 130.26 0C106.955 0 89.0532 14.358 82.7924 36.934H104.298Z" fill="#FB923C"/>
<path d="M113.631 80.4705C113.631 80.4705 113.631 86.6375 119.688 86.6375C125.745 86.6375 125.745 80.4705 125.745 80.4705V35.7629C125.745 35.7629 125.745 29.5959 119.688 29.5959C113.631 29.5959 113.631 35.7629 113.631 35.7629V80.4705Z" fill="white"/>
<path d="M71.2323 35.793C71.2323 35.793 71.2323 29.626 65.1753 29.626C59.1184 29.626 59.1184 35.793 59.1184 35.793V58.1468V80.5006C59.1184 80.5006 59.1184 86.6677 65.1753 86.6677C71.2323 86.6677 71.2323 80.5006 71.2323 80.5006V35.793Z" fill="white"/>
<path d="M81.5291 42.3987V73.8949H103.334V42.3987H81.5291Z" fill="white"/>
<path d="M55.9247 18.3361C49.8677 18.3361 44.4715 19.8595 39.7361 22.9063C35.0006 25.9532 31.2747 30.4316 28.5582 36.3418C25.8785 42.2152 24.5386 49.3734 24.5386 57.8165C24.5386 66.3329 25.8785 73.5462 28.5582 79.4563C31.238 85.3665 34.9639 89.8633 39.7361 92.9468C44.5082 95.9937 50.0513 97.5171 56.3652 97.5171C62.0918 97.5171 67.0475 96.4158 71.2323 94.2133C77.0317 91.1875 79.6933 85.9702 81.5593 79.7317H103.169L103.18 79.7551C102.194 84.9355 100.465 89.6448 97.993 93.8829C96.5921 96.2844 95.0122 98.4985 93.2533 100.525C89.8502 104.446 85.7769 107.665 81.0335 110.182C73.8386 113.963 65.5791 115.853 56.2551 115.853C45.8665 115.853 36.7443 113.522 28.8886 108.86C21.0696 104.161 14.9576 97.4987 10.5525 88.8722C6.18418 80.2089 4 69.9304 4 58.0367C4 48.9329 5.28481 40.8019 7.85443 33.6437C10.4608 26.4854 14.0949 20.4101 18.757 15.4177C23.419 10.3886 28.8886 6.57089 35.1658 3.96456C41.443 1.32152 48.2709 0 55.6494 0C61.8899 0 67.7082 0.917722 73.1044 2.75317C78.9231 4.69272 85.3587 7.48498 90 11.5C85.8889 16.143 83.0654 21.6144 80.3302 27.0849C72.8429 22.6097 64.8681 18.3361 55.9247 18.3361Z" fill="white"/>
</g>
<defs>
<filter id="filter0_d_251_2" x="0" y="0" width="182" height="123.853" filterUnits="userSpaceOnUse" color-interpolation-filters="sRGB">
<feFlood flood-opacity="0" result="BackgroundImageFix"/>
<feColorMatrix in="SourceAlpha" type="matrix" values="0 0 0 0 0 0 0 0 0 0 0 0 0 0 0 0 0 0 127 0" result="hardAlpha"/>
<feOffset dy="4"/>
<feGaussianBlur stdDeviation="2"/>
<feComposite in2="hardAlpha" operator="out"/>
<feColorMatrix type="matrix" values="0 0 0 0 0 0 0 0 0 0 0 0 0 0 0 0 0 0 0.25 0"/>
<feBlend mode="normal" in2="BackgroundImageFix" result="effect1_dropShadow_251_2"/>
<feBlend mode="normal" in="SourceGraphic" in2="effect1_dropShadow_251_2" result="shape"/>
</filter>
</defs>
</svg>
