<svg xmlns="http://www.w3.org/2000/svg" width="575" height="230" fill="none" viewBox="0 0 575 230"><path fill="#FB923C" d="M314.535 97.5171C303.422 97.3375 294.5 92.5 290 89C287.332 96.4049 282.991 101.797 280 105C281.988 106.29 287.28 109.167 294.5 112C303 115 309.066 115.853 314.26 115.853C320.978 115.853 327.09 114.862 332.596 112.88C338.103 110.861 342.911 108.071 347.023 104.51C351.134 100.913 354.456 96.7646 356.989 92.0658C359.559 87.3671 361.229 82.338 362 76.9785L341.406 76.8684C340.782 80.1722 339.644 83.1089 337.992 85.6785C336.377 88.2481 334.377 90.4139 331.991 92.176C329.641 93.938 326.98 95.2779 324.006 96.1956C321.07 97.0766 317.913 97.5171 314.535 97.5171Z"/><path fill="#FB923C" d="M288.298 36.934C293.126 25.2963 301.873 18.3361 314.591 18.3361C318.041 18.3361 321.253 18.8133 324.227 19.7677C327.237 20.6854 329.916 22.062 332.266 23.8975C334.615 25.7329 336.579 27.9722 338.158 30.6152C339.736 33.2215 340.819 36.2133 341.406 39.5905H362C361.156 33.3133 359.357 27.7336 356.604 22.8513C353.887 17.9323 350.418 13.7842 346.197 10.407C341.975 6.99304 337.166 4.40507 331.77 2.64304C326.374 0.881012 320.537 0 314.26 0C290.955 0 273.053 14.358 266.792 36.934H288.298Z"/><path fill="#fff" d="M297.631 80.4705C297.631 80.4705 297.631 86.6375 303.688 86.6375C309.745 86.6375 309.745 80.4705 309.745 80.4705V35.7629C309.745 35.7629 309.745 29.5959 303.688 29.5959C297.631 29.5959 297.631 35.7629 297.631 35.7629V80.4705Z"/><path fill="#fff" d="M255.232 35.793C255.232 35.793 255.232 29.626 249.175 29.626C243.118 29.626 243.118 35.793 243.118 35.793V58.1468V80.5006C243.118 80.5006 243.118 86.6677 249.175 86.6677C255.232 86.6677 255.232 80.5006 255.232 80.5006V35.793Z"/><path fill="#fff" d="M265.529 42.3987V73.8949H287.334V42.3987H265.529Z"/><path fill="#fff" d="M239.925 18.3361C233.868 18.3361 228.472 19.8595 223.736 22.9063C219.001 25.9532 215.275 30.4316 212.558 36.3418C209.878 42.2152 208.539 49.3734 208.539 57.8165C208.539 66.3329 209.878 73.5462 212.558 79.4563C215.238 85.3665 218.964 89.8633 223.736 92.9468C228.508 95.9937 234.051 97.5171 240.365 97.5171C246.092 97.5171 251.047 96.4158 255.232 94.2133C261.032 91.1875 263.693 85.9702 265.559 79.7317H287.169L287.18 79.7551C286.194 84.9355 284.465 89.6448 281.993 93.8829C280.592 96.2844 279.012 98.4985 277.253 100.525C273.85 104.446 269.777 107.665 265.034 110.182C257.839 113.963 249.579 115.853 240.255 115.853C229.866 115.853 220.744 113.522 212.889 108.86C205.07 104.161 198.958 97.4987 194.553 88.8722C190.184 80.2089 188 69.9304 188 58.0367C188 48.9329 189.285 40.8019 191.854 33.6437C194.461 26.4854 198.095 20.4101 202.757 15.4177C207.419 10.3886 212.889 6.57089 219.166 3.96456C225.443 1.32152 232.271 0 239.649 0C245.89 0 251.708 0.917722 257.104 2.75317C262.923 4.69272 269.359 7.48498 274 11.5C269.889 16.143 267.065 21.6144 264.33 27.0849C256.843 22.6097 248.868 18.3361 239.925 18.3361Z"/><path fill="#fff" d="M46.6832 184.478C46.2855 183.095 45.7268 181.874 45.0071 180.813C44.2874 179.734 43.4067 178.825 42.3651 178.086C41.3423 177.328 40.1681 176.751 38.8423 176.353C37.5355 175.955 36.0866 175.756 34.4957 175.756C31.5223 175.756 28.9086 176.495 26.6548 177.972C24.42 179.45 22.6776 181.599 21.4276 184.421C20.1776 187.224 19.5526 190.652 19.5526 194.705C19.5526 198.758 20.1681 202.205 21.3991 205.046C22.6302 207.887 24.3726 210.056 26.6264 211.552C28.8802 213.029 31.5412 213.768 34.6094 213.768C37.3935 213.768 39.7704 213.275 41.7401 212.291C43.7287 211.287 45.2438 209.876 46.2855 208.058C47.3461 206.239 47.8764 204.09 47.8764 201.609L50.3764 201.978H35.3764V192.717H59.723V200.046C59.723 205.16 58.6435 209.554 56.4844 213.228C54.3253 216.883 51.3518 219.705 47.5639 221.694C43.776 223.664 39.4389 224.648 34.5526 224.648C29.098 224.648 24.3063 223.446 20.1776 221.041C16.0488 218.616 12.8291 215.179 10.5185 210.728C8.2268 206.258 7.08097 200.955 7.08097 194.819C7.08097 190.103 7.76278 185.898 9.12642 182.205C10.509 178.493 12.4408 175.349 14.9219 172.773C17.4029 170.198 20.2912 168.237 23.5866 166.893C26.8821 165.548 30.4522 164.876 34.2969 164.876C37.5923 164.876 40.6605 165.359 43.5014 166.325C46.3423 167.272 48.8613 168.616 51.0582 170.359C53.2741 172.101 55.0829 174.175 56.4844 176.58C57.8859 178.967 58.7855 181.599 59.1832 184.478H46.6832ZM81.179 224.677C78.3949 224.677 75.9138 224.194 73.7358 223.228C71.5578 222.243 69.8343 220.794 68.5653 218.881C67.3153 216.95 66.6903 214.544 66.6903 211.666C66.6903 209.241 67.1354 207.205 68.0256 205.558C68.9157 203.91 70.1278 202.584 71.6619 201.58C73.196 200.577 74.9384 199.819 76.8892 199.308C78.8589 198.796 80.9233 198.436 83.0824 198.228C85.6203 197.963 87.6657 197.717 89.2188 197.489C90.7718 197.243 91.8987 196.883 92.5994 196.41C93.3002 195.936 93.6506 195.236 93.6506 194.308V194.137C93.6506 192.338 93.0824 190.946 91.946 189.961C90.8286 188.976 89.2377 188.484 87.1733 188.484C84.9953 188.484 83.2623 188.967 81.9744 189.933C80.6866 190.88 79.8343 192.073 79.4176 193.512L68.2244 192.603C68.7926 189.952 69.91 187.66 71.5767 185.728C73.2434 183.777 75.393 182.281 78.0256 181.239C80.6771 180.179 83.7453 179.648 87.2301 179.648C89.6544 179.648 91.9744 179.933 94.1903 180.501C96.4252 181.069 98.4044 181.95 100.128 183.143C101.87 184.336 103.243 185.87 104.247 187.745C105.251 189.601 105.753 191.827 105.753 194.421V223.853H94.2756V217.802H93.9347C93.2339 219.166 92.2964 220.368 91.1222 221.41C89.9479 222.433 88.5369 223.237 86.8892 223.825C85.2415 224.393 83.3381 224.677 81.179 224.677ZM84.6449 216.325C86.4252 216.325 87.9972 215.974 89.3608 215.273C90.7244 214.554 91.7945 213.588 92.571 212.376C93.3475 211.164 93.7358 209.791 93.7358 208.256V203.626C93.357 203.872 92.8362 204.099 92.1733 204.308C91.5294 204.497 90.8002 204.677 89.9858 204.847C89.1714 204.999 88.357 205.141 87.5426 205.273C86.7282 205.387 85.9896 205.491 85.3267 205.586C83.9063 205.794 82.6657 206.126 81.6051 206.58C80.5445 207.035 79.7206 207.65 79.1335 208.427C78.5464 209.184 78.2528 210.131 78.2528 211.268C78.2528 212.916 78.8494 214.175 80.0426 215.046C81.2547 215.898 82.7888 216.325 84.6449 216.325ZM154.261 180.217L139.006 223.853H125.369L110.114 180.217H122.898L131.96 211.438H132.415L141.449 180.217H154.261ZM178.935 224.705C174.446 224.705 170.582 223.796 167.344 221.978C164.124 220.141 161.643 217.546 159.901 214.194C158.158 210.823 157.287 206.836 157.287 202.234C157.287 197.745 158.158 193.806 159.901 190.416C161.643 187.025 164.096 184.383 167.259 182.489C170.44 180.595 174.171 179.648 178.452 179.648C181.33 179.648 184.01 180.112 186.491 181.041C188.991 181.95 191.17 183.323 193.026 185.16C194.901 186.997 196.359 189.308 197.401 192.092C198.442 194.857 198.963 198.095 198.963 201.808V205.131H162.116V197.631H187.571C187.571 195.889 187.192 194.345 186.435 193.001C185.677 191.656 184.626 190.605 183.281 189.847C181.955 189.071 180.412 188.683 178.651 188.683C176.813 188.683 175.185 189.109 173.764 189.961C172.363 190.794 171.264 191.921 170.469 193.342C169.673 194.743 169.266 196.306 169.247 198.029V205.16C169.247 207.319 169.645 209.184 170.44 210.756C171.255 212.328 172.401 213.541 173.878 214.393C175.355 215.245 177.107 215.671 179.134 215.671C180.478 215.671 181.709 215.482 182.827 215.103C183.944 214.724 184.901 214.156 185.696 213.398C186.491 212.641 187.098 211.713 187.514 210.614L198.707 211.353C198.139 214.042 196.974 216.391 195.213 218.398C193.471 220.387 191.217 221.94 188.452 223.058C185.705 224.156 182.533 224.705 178.935 224.705ZM218.963 165.671V223.853H206.861V165.671H218.963ZM298.736 186.041H286.293C286.065 184.431 285.601 183.001 284.901 181.751C284.2 180.482 283.3 179.402 282.202 178.512C281.103 177.622 279.834 176.94 278.395 176.467C276.974 175.993 275.431 175.756 273.764 175.756C270.753 175.756 268.13 176.505 265.895 178.001C263.66 179.478 261.927 181.637 260.696 184.478C259.465 187.3 258.849 190.728 258.849 194.762C258.849 198.91 259.465 202.395 260.696 205.217C261.946 208.039 263.688 210.169 265.923 211.609C268.158 213.048 270.743 213.768 273.679 213.768C275.327 213.768 276.851 213.55 278.253 213.114C279.673 212.679 280.933 212.044 282.031 211.211C283.13 210.359 284.039 209.327 284.759 208.114C285.497 206.902 286.009 205.52 286.293 203.967L298.736 204.023C298.414 206.694 297.609 209.27 296.321 211.751C295.052 214.213 293.338 216.419 291.179 218.37C289.039 220.302 286.482 221.836 283.509 222.972C280.554 224.09 277.211 224.648 273.48 224.648C268.291 224.648 263.651 223.474 259.56 221.126C255.488 218.777 252.268 215.378 249.901 210.927C247.552 206.476 246.378 201.088 246.378 194.762C246.378 188.417 247.571 183.02 249.957 178.569C252.344 174.118 255.582 170.728 259.673 168.398C263.764 166.05 268.366 164.876 273.48 164.876C276.851 164.876 279.976 165.349 282.855 166.296C285.753 167.243 288.319 168.626 290.554 170.444C292.789 172.243 294.607 174.45 296.009 177.063C297.429 179.677 298.338 182.669 298.736 186.041ZM327.045 224.705C322.633 224.705 318.816 223.768 315.597 221.893C312.396 219.999 309.924 217.366 308.182 213.995C306.439 210.605 305.568 206.675 305.568 202.205C305.568 197.698 306.439 193.758 308.182 190.387C309.924 186.997 312.396 184.364 315.597 182.489C318.816 180.595 322.633 179.648 327.045 179.648C331.458 179.648 335.265 180.595 338.466 182.489C341.686 184.364 344.167 186.997 345.909 190.387C347.652 193.758 348.523 197.698 348.523 202.205C348.523 206.675 347.652 210.605 345.909 213.995C344.167 217.366 341.686 219.999 338.466 221.893C335.265 223.768 331.458 224.705 327.045 224.705ZM327.102 215.33C329.11 215.33 330.786 214.762 332.131 213.626C333.475 212.47 334.489 210.898 335.17 208.91C335.871 206.921 336.222 204.658 336.222 202.12C336.222 199.582 335.871 197.319 335.17 195.33C334.489 193.342 333.475 191.77 332.131 190.614C330.786 189.459 329.11 188.881 327.102 188.881C325.076 188.881 323.371 189.459 321.989 190.614C320.625 191.77 319.593 193.342 318.892 195.33C318.21 197.319 317.869 199.582 317.869 202.12C317.869 204.658 318.21 206.921 318.892 208.91C319.593 210.898 320.625 212.47 321.989 213.626C323.371 214.762 325.076 215.33 327.102 215.33ZM368.494 198.626V223.853H356.392V180.217H367.926V187.916H368.438C369.403 185.378 371.023 183.37 373.295 181.893C375.568 180.397 378.324 179.648 381.562 179.648C384.593 179.648 387.235 180.311 389.489 181.637C391.742 182.963 393.494 184.857 394.744 187.319C395.994 189.762 396.619 192.679 396.619 196.069V223.853H384.517V198.228C384.536 195.558 383.854 193.474 382.472 191.978C381.089 190.463 379.186 189.705 376.761 189.705C375.133 189.705 373.693 190.056 372.443 190.756C371.212 191.457 370.246 192.48 369.545 193.825C368.864 195.15 368.513 196.751 368.494 198.626ZM418.26 198.626V223.853H406.158V180.217H417.692V187.916H418.203C419.169 185.378 420.788 183.37 423.061 181.893C425.334 180.397 428.089 179.648 431.328 179.648C434.358 179.648 437 180.311 439.254 181.637C441.508 182.963 443.26 184.857 444.51 187.319C445.76 189.762 446.385 192.679 446.385 196.069V223.853H434.283V198.228C434.302 195.558 433.62 193.474 432.237 191.978C430.855 190.463 428.951 189.705 426.527 189.705C424.898 189.705 423.459 190.056 422.209 190.756C420.978 191.457 420.012 192.48 419.311 193.825C418.629 195.15 418.279 196.751 418.26 198.626ZM475.81 224.705C471.321 224.705 467.457 223.796 464.219 221.978C460.999 220.141 458.518 217.546 456.776 214.194C455.033 210.823 454.162 206.836 454.162 202.234C454.162 197.745 455.033 193.806 456.776 190.416C458.518 187.025 460.971 184.383 464.134 182.489C467.315 180.595 471.046 179.648 475.327 179.648C478.205 179.648 480.885 180.112 483.366 181.041C485.866 181.95 488.045 183.323 489.901 185.16C491.776 186.997 493.234 189.308 494.276 192.092C495.317 194.857 495.838 198.095 495.838 201.808V205.131H458.991V197.631H484.446C484.446 195.889 484.067 194.345 483.31 193.001C482.552 191.656 481.501 190.605 480.156 189.847C478.83 189.071 477.287 188.683 475.526 188.683C473.688 188.683 472.06 189.109 470.639 189.961C469.238 190.794 468.139 191.921 467.344 193.342C466.548 194.743 466.141 196.306 466.122 198.029V205.16C466.122 207.319 466.52 209.184 467.315 210.756C468.13 212.328 469.276 213.541 470.753 214.393C472.23 215.245 473.982 215.671 476.009 215.671C477.353 215.671 478.584 215.482 479.702 215.103C480.819 214.724 481.776 214.156 482.571 213.398C483.366 212.641 483.973 211.713 484.389 210.614L495.582 211.353C495.014 214.042 493.849 216.391 492.088 218.398C490.346 220.387 488.092 221.94 485.327 223.058C482.58 224.156 479.408 224.705 475.81 224.705ZM523.452 224.705C518.982 224.705 515.137 223.758 511.918 221.864C508.717 219.952 506.255 217.3 504.531 213.91C502.827 210.52 501.974 206.618 501.974 202.205C501.974 197.736 502.836 193.815 504.56 190.444C506.302 187.054 508.774 184.412 511.974 182.518C515.175 180.605 518.982 179.648 523.395 179.648C527.202 179.648 530.535 180.34 533.395 181.722C536.255 183.105 538.518 185.046 540.185 187.546C541.851 190.046 542.77 192.982 542.94 196.353H531.52C531.198 194.175 530.346 192.423 528.963 191.097C527.599 189.753 525.81 189.08 523.594 189.08C521.719 189.08 520.08 189.592 518.679 190.614C517.296 191.618 516.217 193.086 515.44 195.018C514.664 196.95 514.276 199.289 514.276 202.035C514.276 204.819 514.654 207.186 515.412 209.137C516.188 211.088 517.277 212.575 518.679 213.597C520.08 214.62 521.719 215.131 523.594 215.131C524.976 215.131 526.217 214.847 527.315 214.279C528.433 213.711 529.351 212.887 530.071 211.808C530.81 210.709 531.293 209.393 531.52 207.859H542.94C542.751 211.192 541.842 214.128 540.213 216.666C538.603 219.184 536.378 221.154 533.537 222.575C530.696 223.995 527.334 224.705 523.452 224.705ZM573.899 180.217V189.308H547.621V180.217H573.899ZM553.587 169.762H565.689V210.444C565.689 211.561 565.859 212.433 566.2 213.058C566.541 213.664 567.015 214.09 567.621 214.336C568.246 214.582 568.965 214.705 569.78 214.705C570.348 214.705 570.916 214.658 571.484 214.563C572.053 214.45 572.488 214.364 572.791 214.308L574.695 223.313C574.089 223.503 573.236 223.72 572.138 223.967C571.039 224.232 569.704 224.393 568.132 224.45C565.215 224.563 562.659 224.175 560.462 223.285C558.284 222.395 556.589 221.012 555.376 219.137C554.164 217.262 553.568 214.895 553.587 212.035V169.762Z"/></svg>