<svg width="144" height="96" viewBox="0 0 144 96" fill="none" xmlns="http://www.w3.org/2000/svg">
<path d="M56.8636 19.3636C58.7121 20.7576 60.2879 22.4394 61.5909 24.4091C61.5945 24.4143 61.598 24.4195 61.6016 24.4246C62.3277 22.3324 63.1849 20.3424 64.1729 18.4545C65.8838 15.1719 67.8788 12.2436 70.1579 9.66962C69.7509 9.31752 69.3346 8.9731 68.9091 8.63637C65.4545 5.87879 61.5 3.75758 57.0455 2.27273C52.5909 0.757576 47.7879 0 42.6364 0C36.5455 0 30.9091 1.09091 25.7273 3.27273C20.5455 5.42424 16.0303 8.57576 12.1818 12.7273C8.33333 16.8485 5.33333 21.8636 3.18182 27.7727C1.06061 33.6818 0 40.3939 0 47.9091C0 57.7273 1.80303 66.2121 5.40909 73.3636C9.04545 80.4849 14.0909 85.9849 20.5455 89.8636C27.0303 93.7121 34.5606 95.6364 43.1364 95.6364C50.8333 95.6364 57.6515 94.0758 63.5909 90.9546C67.5065 88.8769 70.869 86.2197 73.6783 82.983C71.1591 80.2547 68.9785 77.1088 67.1364 73.5455C65.9811 71.3106 65.0063 68.9367 64.212 66.4237C64.1525 66.2353 64.0939 66.0461 64.0364 65.8562L64.0249 65.8182C62.4846 70.9681 60.2874 75.275 55.5 77.7727C52.0455 79.5909 47.9545 80.5 43.2273 80.5C38.0152 80.5 33.4394 79.2424 29.5 76.7273C25.5606 74.1818 22.4848 70.4697 20.2727 65.5909C18.0606 60.7121 16.9545 54.7576 16.9545 47.7273C16.9545 40.7576 18.0606 34.8485 20.2727 30C22.5152 25.1212 25.5909 21.4242 29.5 18.9091C33.4091 16.3939 37.8636 15.1364 42.8636 15.1364C45.6515 15.1364 48.2273 15.5 50.5909 16.2273C52.9545 16.9242 55.0455 17.9697 56.8636 19.3636Z" fill="white"/>
<path d="M67.1364 73.5455C68.9785 77.1088 71.1591 80.2547 73.6783 82.983C75.1303 81.3101 76.4345 79.4825 77.5909 77.5C79.6317 74.0015 81.0589 70.114 81.8726 65.8375L81.8636 65.8182H64.0249L64.0364 65.8562C64.0939 66.0461 64.1525 66.2353 64.212 66.4237C65.0063 68.9367 65.9811 71.3106 67.1364 73.5455Z" fill="white"/>
<path d="M78.5455 47.8182C78.5455 42.8226 79.1088 38.3749 80.2354 34.4752H73.6051H73.5909H64.4687V61.4752H65.7195H73.5909H73.6051H80.2711C79.1207 57.5059 78.5455 52.9536 78.5455 47.8182Z" fill="white"/>
<path d="M82.7273 61.4752V34.4752H80.2354C79.1088 38.3749 78.5455 42.8226 78.5455 47.8182C78.5455 52.9536 79.1207 57.5059 80.2711 61.4752H82.4778H82.7273Z" fill="white"/>
<path d="M54.5142 61.4752H61.0142V34.4752H54.5142V61.4752Z" fill="white"/>
<path d="M51.0142 34.4752H41.0142V47.9752V61.4752H51.0142V34.4752Z" fill="white"/>
<path d="M41.0142 34.4752H51.0142C51.0142 34.4752 51.0142 29.3843 46.0142 29.3843C41.0142 29.3843 41.0142 34.4752 41.0142 34.4752Z" fill="white"/>
<path d="M51.0142 61.4752H41.0142C41.0142 61.4752 41.0142 66.566 46.0142 66.566C51.0142 66.566 51.0142 61.4752 51.0142 61.4752Z" fill="white"/>
<path d="M92.6818 61.4752H86.1818V34.4752H92.6818V61.4752Z" fill="white"/>
<path d="M96.1818 61.4752H106.182V47.9752V34.4752H96.1818V61.4752Z" fill="white"/>
<path d="M106.182 61.4752H96.1818C96.1818 61.4752 96.1818 66.566 101.182 66.566C106.182 66.566 106.182 61.4752 106.182 61.4752Z" fill="white"/>
<path d="M96.1818 34.4752H106.182C106.182 34.4752 106.182 29.3843 101.182 29.3843C96.1818 29.3843 96.1818 34.4752 96.1818 34.4752Z" fill="white"/>
<path d="M104.455 80.5C99.4242 80.5 94.9545 79.2727 91.0455 76.8182C88.5512 75.2203 86.3952 73.1337 84.5776 70.5584C83.733 74.2751 82.4052 77.6855 80.5944 80.7897C79.4872 82.6879 78.2444 84.4442 76.8662 86.0585C78.5589 87.5109 80.3763 88.8095 82.3182 89.9546C88.7424 93.7424 96.0455 95.6364 104.227 95.6364C109.773 95.6364 114.818 94.8182 119.364 93.1818C123.909 91.5152 127.879 89.2121 131.273 86.2727C134.667 83.303 137.409 79.8788 139.5 76C141.621 72.1212 143 67.9697 143.636 63.5455L126.636 63.4545C126.121 66.1818 125.182 68.6061 123.818 70.7273C122.485 72.8485 120.833 74.6364 118.864 76.0909C116.924 77.5455 114.727 78.6515 112.273 79.4091C109.848 80.1364 107.242 80.5 104.455 80.5Z" fill="#FB923C"/>
<path d="M77.5 18.4545C79.7424 22.2424 80.7512 26.4242 81.4482 31C81.582 30.6773 81.7205 30.3591 81.8636 30.0455C84.0758 25.1667 87.1364 21.4697 91.0455 18.9545C94.9545 16.4091 99.4394 15.1364 104.5 15.1364C107.348 15.1364 110 15.5303 112.455 16.3182C114.939 17.0758 117.152 18.2121 119.091 19.7273C121.03 21.2424 122.652 23.0909 123.955 25.2727C125.258 27.4242 126.152 29.8939 126.636 32.6818H143.636C142.939 27.5 141.455 22.8939 139.182 18.8636C136.939 14.803 134.076 11.3788 130.591 8.59091C127.106 5.77273 123.136 3.63637 118.682 2.18182C114.227 0.727272 109.409 0 104.227 0C96.1061 0 88.8333 1.89394 82.4091 5.68182C79.0705 7.65031 76.0962 10.073 73.486 12.9499C74.9928 14.6448 76.3309 16.4796 77.5 18.4545Z" fill="#FB923C"/>
<path d="M81.4482 31C80.7512 26.4242 79.7424 22.2424 77.5 18.4545C76.3309 16.4796 74.9928 14.6448 73.486 12.9499C71.0735 15.6089 68.9721 18.6559 67.1818 22.0909C65.9875 24.3727 64.9846 26.8038 64.1729 29.3843C64.3723 29.9099 64.557 30.4484 64.7273 31H81.4482Z" fill="#FB923C"/>
</svg>
