<svg width="907" height="97" viewBox="0 0 907 97" fill="none" xmlns="http://www.w3.org/2000/svg">
<path d="M61.4545 32.6364C61.0606 31.0303 60.4394 29.6212 59.5909 28.4091C58.7424 27.1667 57.6818 26.1212 56.4091 25.2727C55.1667 24.3939 53.7121 23.7424 52.0455 23.3182C50.4091 22.8636 48.6061 22.6364 46.6364 22.6364C42.3939 22.6364 38.7727 23.6515 35.7727 25.6818C32.803 27.7121 30.5303 30.6364 28.9545 34.4545C27.4091 38.2727 26.6364 42.8788 26.6364 48.2727C26.6364 53.7273 27.3788 58.3939 28.8636 62.2727C30.3485 66.1515 32.5606 69.1212 35.5 71.1818C38.4394 73.2424 42.0909 74.2727 46.4545 74.2727C50.303 74.2727 53.5 73.7121 56.0455 72.5909C58.6212 71.4697 60.5455 69.8788 61.8182 67.8182C63.0909 65.7576 63.7273 63.3333 63.7273 60.5455L68.0909 61H46.8182V43H88.0909V55.9091C88.0909 64.3939 86.2879 71.6515 82.6818 77.6818C79.1061 83.6818 74.1667 88.2879 67.8636 91.5C61.5909 94.6818 54.3939 96.2727 46.2727 96.2727C37.2121 96.2727 29.2576 94.3485 22.4091 90.5C15.5606 86.6515 10.2121 81.1667 6.36364 74.0455C2.54545 66.9242 0.636364 58.4545 0.636364 48.6364C0.636364 40.9394 1.80303 34.1212 4.13636 28.1818C6.5 22.2424 9.77273 17.2273 13.9545 13.1364C18.1364 9.01515 22.9697 5.90909 28.4545 3.81818C33.9394 1.69697 39.8182 0.63636 46.0909 0.63636C51.6061 0.63636 56.7273 1.42424 61.4545 3C66.2121 4.54545 70.4091 6.75757 74.0455 9.63636C77.7121 12.4848 80.6667 15.8636 82.9091 19.7727C85.1515 23.6818 86.5152 27.9697 87 32.6364H61.4545ZM119.693 96.0909C115.239 96.0909 111.299 95.3636 107.875 93.9091C104.481 92.4242 101.814 90.1818 99.875 87.1818C97.9356 84.1818 96.9659 80.3636 96.9659 75.7273C96.9659 71.9091 97.6174 68.6515 98.9205 65.9545C100.223 63.2273 102.042 61 104.375 59.2727C106.708 57.5455 109.42 56.2273 112.511 55.3182C115.633 54.4091 118.996 53.8182 122.602 53.5455C126.511 53.2424 129.648 52.8788 132.011 52.4545C134.405 52 136.133 51.3788 137.193 50.5909C138.254 49.7727 138.784 48.697 138.784 47.3636V47.1818C138.784 45.3636 138.087 43.9697 136.693 43C135.299 42.0303 133.511 41.5455 131.33 41.5455C128.936 41.5455 126.981 42.0758 125.466 43.1364C123.981 44.1667 123.087 45.7576 122.784 47.9091H99.6932C99.9962 43.6667 101.345 39.7576 103.739 36.1818C106.163 32.5758 109.693 29.697 114.33 27.5455C118.966 25.3636 124.754 24.2727 131.693 24.2727C136.693 24.2727 141.178 24.8636 145.148 26.0455C149.117 27.197 152.496 28.8182 155.284 30.9091C158.072 32.9697 160.193 35.3939 161.648 38.1818C163.133 40.9394 163.875 43.9394 163.875 47.1818V95H140.42V85.1818H139.875C138.481 87.7879 136.784 89.8939 134.784 91.5C132.814 93.1061 130.557 94.2727 128.011 95C125.496 95.7273 122.723 96.0909 119.693 96.0909ZM127.875 80.2727C129.784 80.2727 131.572 79.8788 133.239 79.0909C134.936 78.303 136.314 77.1667 137.375 75.6818C138.436 74.197 138.966 72.3939 138.966 70.2727V64.4545C138.299 64.7273 137.587 64.9848 136.83 65.2273C136.102 65.4697 135.314 65.697 134.466 65.9091C133.648 66.1212 132.769 66.3182 131.83 66.5C130.92 66.6818 129.966 66.8485 128.966 67C127.027 67.303 125.436 67.803 124.193 68.5C122.981 69.1667 122.072 70 121.466 71C120.89 71.9697 120.602 73.0606 120.602 74.2727C120.602 76.2121 121.284 77.697 122.648 78.7273C124.011 79.7576 125.754 80.2727 127.875 80.2727ZM243.727 25.1818L220.273 95H191.182L167.727 25.1818H194.091L205.364 71.3636H206.091L217.364 25.1818H243.727ZM282.193 96.2727C274.739 96.2727 268.314 94.8485 262.92 92C257.557 89.1212 253.42 85 250.511 79.6364C247.633 74.2424 246.193 67.7879 246.193 60.2727C246.193 53.0606 247.648 46.7576 250.557 41.3636C253.466 35.9697 257.572 31.7727 262.875 28.7727C268.178 25.7727 274.436 24.2727 281.648 24.2727C286.92 24.2727 291.693 25.0909 295.966 26.7273C300.239 28.3636 303.89 30.7424 306.92 33.8636C309.951 36.9545 312.284 40.7121 313.92 45.1364C315.557 49.5606 316.375 54.5455 316.375 60.0909V65.9091H254.011V52.0909H293.284C293.254 50.0909 292.739 48.3333 291.739 46.8182C290.769 45.2727 289.451 44.0758 287.784 43.2273C286.148 42.3485 284.284 41.9091 282.193 41.9091C280.163 41.9091 278.299 42.3485 276.602 43.2273C274.905 44.0758 273.542 45.2576 272.511 46.7727C271.511 48.2879 270.981 50.0606 270.92 52.0909V67C270.92 69.2424 271.39 71.2424 272.33 73C273.269 74.7576 274.617 76.1364 276.375 77.1364C278.133 78.1364 280.254 78.6364 282.739 78.6364C284.466 78.6364 286.042 78.3939 287.466 77.9091C288.92 77.4242 290.163 76.7273 291.193 75.8182C292.223 74.8788 292.981 73.7576 293.466 72.4545H316.375C315.587 77.303 313.723 81.5152 310.784 85.0909C307.845 88.6364 303.951 91.3939 299.102 93.3636C294.284 95.303 288.648 96.2727 282.193 96.2727ZM351.705 1.90909V95H326.614V1.90909H351.705Z" fill="#FB923C"/>
<path d="M451.034 36.8182H425.398C425.216 34.697 424.731 32.7727 423.943 31.0455C423.186 29.3182 422.125 27.8333 420.761 26.5909C419.428 25.3182 417.807 24.3485 415.898 23.6818C413.989 22.9848 411.822 22.6364 409.398 22.6364C405.155 22.6364 401.564 23.6667 398.625 25.7273C395.716 27.7879 393.504 30.7424 391.989 34.5909C390.504 38.4394 389.761 43.0606 389.761 48.4545C389.761 54.1515 390.519 58.9242 392.034 62.7727C393.58 66.5909 395.807 69.4697 398.716 71.4091C401.625 73.3182 405.125 74.2727 409.216 74.2727C411.549 74.2727 413.64 73.9848 415.489 73.4091C417.337 72.803 418.943 71.9394 420.307 70.8182C421.67 69.697 422.777 68.3485 423.625 66.7727C424.504 65.1667 425.095 63.3636 425.398 61.3636L451.034 61.5455C450.731 65.4848 449.625 69.5 447.716 73.5909C445.807 77.6515 443.095 81.4091 439.58 84.8636C436.095 88.2879 431.777 91.0455 426.625 93.1364C421.473 95.2273 415.489 96.2727 408.67 96.2727C400.125 96.2727 392.458 94.4394 385.67 90.7727C378.913 87.1061 373.564 81.7121 369.625 74.5909C365.716 67.4697 363.761 58.7576 363.761 48.4545C363.761 38.0909 365.761 29.3636 369.761 22.2727C373.761 15.1515 379.155 9.77272 385.943 6.13636C392.731 2.46969 400.307 0.63636 408.67 0.63636C414.549 0.63636 419.958 1.43939 424.898 3.04545C429.837 4.65151 434.17 7 437.898 10.0909C441.625 13.1515 444.625 16.9242 446.898 21.4091C449.17 25.8939 450.549 31.0303 451.034 36.8182ZM496.5 96.2727C488.924 96.2727 482.439 94.7727 477.045 91.7727C471.652 88.7424 467.515 84.5303 464.636 79.1364C461.758 73.7121 460.318 67.4242 460.318 60.2727C460.318 53.1212 461.758 46.8485 464.636 41.4545C467.515 36.0303 471.652 31.8182 477.045 28.8182C482.439 25.7879 488.924 24.2727 496.5 24.2727C504.076 24.2727 510.561 25.7879 515.955 28.8182C521.348 31.8182 525.485 36.0303 528.364 41.4545C531.242 46.8485 532.682 53.1212 532.682 60.2727C532.682 67.4242 531.242 73.7121 528.364 79.1364C525.485 84.5303 521.348 88.7424 515.955 91.7727C510.561 94.7727 504.076 96.2727 496.5 96.2727ZM496.682 77.7273C498.803 77.7273 500.636 77.0152 502.182 75.5909C503.727 74.1667 504.924 72.1364 505.773 69.5C506.621 66.8636 507.045 63.7273 507.045 60.0909C507.045 56.4242 506.621 53.2879 505.773 50.6818C504.924 48.0455 503.727 46.0152 502.182 44.5909C500.636 43.1667 498.803 42.4545 496.682 42.4545C494.439 42.4545 492.515 43.1667 490.909 44.5909C489.303 46.0152 488.076 48.0455 487.227 50.6818C486.379 53.2879 485.955 56.4242 485.955 60.0909C485.955 63.7273 486.379 66.8636 487.227 69.5C488.076 72.1364 489.303 74.1667 490.909 75.5909C492.515 77.0152 494.439 77.7273 496.682 77.7273ZM567.955 55.7273V95H542.864V25.1818H566.682V38.4545H567.409C568.924 34.0303 571.591 30.5606 575.409 28.0455C579.258 25.5303 583.742 24.2727 588.864 24.2727C593.803 24.2727 598.091 25.4091 601.727 27.6818C605.394 29.9242 608.227 33.0151 610.227 36.9545C612.258 40.8939 613.258 45.3939 613.227 50.4545V95H588.136V55.7273C588.167 52.2727 587.288 49.5606 585.5 47.5909C583.742 45.6212 581.288 44.6364 578.136 44.6364C576.076 44.6364 574.273 45.0909 572.727 46C571.212 46.8788 570.045 48.1515 569.227 49.8182C568.409 51.4545 567.985 53.4242 567.955 55.7273ZM650.705 55.7273V95H625.614V25.1818H649.432V38.4545H650.159C651.674 34.0303 654.341 30.5606 658.159 28.0455C662.008 25.5303 666.492 24.2727 671.614 24.2727C676.553 24.2727 680.841 25.4091 684.477 27.6818C688.144 29.9242 690.977 33.0151 692.977 36.9545C695.008 40.8939 696.008 45.3939 695.977 50.4545V95H670.886V55.7273C670.917 52.2727 670.038 49.5606 668.25 47.5909C666.492 45.6212 664.038 44.6364 660.886 44.6364C658.826 44.6364 657.023 45.0909 655.477 46C653.962 46.8788 652.795 48.1515 651.977 49.8182C651.159 51.4545 650.735 53.4242 650.705 55.7273ZM741.818 96.2727C734.364 96.2727 727.939 94.8485 722.545 92C717.182 89.1212 713.045 85 710.136 79.6364C707.258 74.2424 705.818 67.7879 705.818 60.2727C705.818 53.0606 707.273 46.7576 710.182 41.3636C713.091 35.9697 717.197 31.7727 722.5 28.7727C727.803 25.7727 734.061 24.2727 741.273 24.2727C746.545 24.2727 751.318 25.0909 755.591 26.7273C759.864 28.3636 763.515 30.7424 766.545 33.8636C769.576 36.9545 771.909 40.7121 773.545 45.1364C775.182 49.5606 776 54.5455 776 60.0909V65.9091H713.636V52.0909H752.909C752.879 50.0909 752.364 48.3333 751.364 46.8182C750.394 45.2727 749.076 44.0758 747.409 43.2273C745.773 42.3485 743.909 41.9091 741.818 41.9091C739.788 41.9091 737.924 42.3485 736.227 43.2273C734.53 44.0758 733.167 45.2576 732.136 46.7727C731.136 48.2879 730.606 50.0606 730.545 52.0909V67C730.545 69.2424 731.015 71.2424 731.955 73C732.894 74.7576 734.242 76.1364 736 77.1364C737.758 78.1364 739.879 78.6364 742.364 78.6364C744.091 78.6364 745.667 78.3939 747.091 77.9091C748.545 77.4242 749.788 76.7273 750.818 75.8182C751.848 74.8788 752.606 73.7576 753.091 72.4545H776C775.212 77.303 773.348 81.5152 770.409 85.0909C767.47 88.6364 763.576 91.3939 758.727 93.3636C753.909 95.303 748.273 96.2727 741.818 96.2727ZM819.875 96.2727C812.299 96.2727 805.814 94.7727 800.42 91.7727C795.027 88.7424 790.89 84.5303 788.011 79.1364C785.133 73.7121 783.693 67.4242 783.693 60.2727C783.693 53.1212 785.133 46.8485 788.011 41.4545C790.89 36.0303 795.027 31.8182 800.42 28.8182C805.814 25.7879 812.299 24.2727 819.875 24.2727C826.723 24.2727 832.648 25.5152 837.648 28C842.678 30.4545 846.572 33.9394 849.33 38.4545C852.087 42.9394 853.481 48.2121 853.511 54.2727H830.239C829.905 50.6061 828.845 47.8182 827.057 45.9091C825.299 43.9697 823.027 43 820.239 43C818.057 43 816.148 43.6364 814.511 44.9091C812.875 46.1515 811.602 48.0455 810.693 50.5909C809.784 53.1061 809.33 56.2727 809.33 60.0909C809.33 63.9091 809.784 67.0909 810.693 69.6364C811.602 72.1515 812.875 74.0455 814.511 75.3182C816.148 76.5606 818.057 77.1818 820.239 77.1818C822.087 77.1818 823.723 76.7576 825.148 75.9091C826.572 75.0303 827.723 73.7576 828.602 72.0909C829.511 70.3939 830.057 68.3333 830.239 65.9091H853.511C853.42 72.0606 852.011 77.4242 849.284 82C846.557 86.5455 842.693 90.0606 837.693 92.5455C832.723 95.0303 826.784 96.2727 819.875 96.2727ZM905.5 25.1818V43.3636H859.5V25.1818H905.5ZM868.409 8.45454H893.5V72.5455C893.5 73.5152 893.667 74.3333 894 75C894.333 75.6364 894.848 76.1212 895.545 76.4545C896.242 76.7576 897.136 76.9091 898.227 76.9091C898.985 76.9091 899.864 76.8182 900.864 76.6364C901.894 76.4545 902.652 76.303 903.136 76.1818L906.773 93.8182C905.652 94.1515 904.045 94.5606 901.955 95.0455C899.894 95.5303 897.439 95.8485 894.591 96C888.833 96.303 884 95.7121 880.091 94.2273C876.182 92.7121 873.242 90.3333 871.273 87.0909C869.303 83.8485 868.348 79.7879 868.409 74.9091V8.45454Z" fill="white"/>
</svg>
