<svg xmlns="http://www.w3.org/2000/svg" width="135" height="73" fill="none" viewBox="0 0 135 73"><path fill="#E83D3D" d="M53.5305 63.1515C53.4822 62.9726 53.4112 62.8149 53.3174 62.6785C53.2237 62.5393 53.1086 62.4214 52.9722 62.3248C52.8359 62.2282 52.6796 62.1558 52.5035 62.1075C52.3274 62.0564 52.1342 62.0308 51.924 62.0308C51.5007 62.0308 51.1342 62.1331 50.8245 62.3376C50.5177 62.5422 50.2805 62.8405 50.1129 63.2325C49.9453 63.6217 49.8615 64.0947 49.8615 64.6515C49.8615 65.2112 49.9424 65.6885 50.1043 66.0834C50.2663 66.4782 50.5007 66.7794 50.8075 66.9868C51.1143 67.1941 51.4865 67.2978 51.924 67.2978C52.3103 67.2978 52.637 67.2353 52.9041 67.1103C53.174 66.9825 53.3785 66.8021 53.5177 66.5691C53.6569 66.3362 53.7265 66.062 53.7265 65.7467L54.1186 65.7936H51.9964V64.2552H55.7592V65.4101C55.7592 66.1913 55.593 66.8603 55.2606 67.4172C54.9311 67.974 54.4765 68.4015 53.897 68.6998C53.3203 68.9981 52.6569 69.1473 51.9069 69.1473C51.0745 69.1473 50.343 68.9669 49.7123 68.6061C49.0816 68.2453 48.5901 67.7311 48.2379 67.0635C47.8856 66.393 47.7095 65.5976 47.7095 64.6771C47.7095 63.9612 47.816 63.3262 48.0291 62.7723C48.2421 62.2155 48.539 61.7439 48.9197 61.3575C49.3032 60.9711 49.7464 60.6785 50.2492 60.4797C50.7549 60.2808 51.299 60.1814 51.8813 60.1814C52.387 60.1814 52.8572 60.2538 53.2918 60.3987C53.7293 60.5436 54.1157 60.7481 54.4509 61.0123C54.789 61.2765 55.0632 61.5905 55.2734 61.9541C55.4836 62.3177 55.6143 62.7169 55.6654 63.1515H53.5305ZM58.8476 69.1387C58.43 69.1387 58.0592 69.0691 57.7354 68.9299C57.4144 68.7879 57.1601 68.5748 56.9726 68.2907C56.7879 68.0038 56.6956 67.6444 56.6956 67.2126C56.6956 66.849 56.7595 66.5422 56.8874 66.2922C57.0152 66.0422 57.1914 65.839 57.4158 65.6828C57.6402 65.5265 57.8987 65.4086 58.1914 65.3291C58.484 65.2467 58.7965 65.1913 59.1289 65.1629C59.501 65.1288 59.8007 65.0933 60.028 65.0564C60.2553 65.0166 60.42 64.9612 60.5223 64.8902C60.6274 64.8163 60.68 64.7126 60.68 64.5791V64.5578C60.68 64.339 60.6047 64.17 60.4541 64.0507C60.3036 63.9314 60.1004 63.8717 59.8448 63.8717C59.5692 63.8717 59.3476 63.9314 59.18 64.0507C59.0124 64.17 58.9058 64.3348 58.8604 64.545L56.9385 64.4768C56.9953 64.0791 57.1416 63.724 57.3774 63.4115C57.6161 63.0961 57.9428 62.849 58.3575 62.67C58.7752 62.4882 59.2766 62.3973 59.8618 62.3973C60.2794 62.3973 60.6644 62.447 61.0166 62.5464C61.3689 62.643 61.6757 62.7851 61.9371 62.9726C62.1985 63.1572 62.4002 63.3845 62.5422 63.6544C62.6871 63.9243 62.7595 64.2325 62.7595 64.5791V69.028H60.7993V68.116H60.7482C60.6317 68.3376 60.4825 68.5251 60.3007 68.6785C60.1217 68.8319 59.9101 68.947 59.6658 69.0237C59.4243 69.1004 59.1516 69.1387 58.8476 69.1387ZM59.4911 67.7751C59.7155 67.7751 59.9172 67.7297 60.0962 67.6387C60.278 67.5478 60.4229 67.4228 60.5308 67.2637C60.6388 67.1018 60.6928 66.9143 60.6928 66.7012V66.0791C60.6331 66.1103 60.5607 66.1387 60.4754 66.1643C60.3931 66.1899 60.3021 66.214 60.2027 66.2368C60.1033 66.2595 60.001 66.2794 59.8959 66.2964C59.7908 66.3135 59.6899 66.3291 59.5933 66.3433C59.3973 66.3745 59.2297 66.4228 59.0905 66.4882C58.9541 66.5535 58.849 66.6387 58.7752 66.7439C58.7041 66.8461 58.6686 66.9683 58.6686 67.1103C58.6686 67.3262 58.7453 67.491 58.8987 67.6047C59.055 67.7183 59.2524 67.7751 59.4911 67.7751ZM70.1487 62.4825L67.903 69.028H65.5166L63.2752 62.4825H65.4698L66.6757 66.991H66.7439L67.9541 62.4825H70.1487ZM73.7965 69.1515C73.1118 69.1515 72.5209 69.0166 72.0237 68.7467C71.5294 68.474 71.1487 68.0862 70.8817 67.5834C70.6175 67.0777 70.4854 66.4768 70.4854 65.7808C70.4854 65.1047 70.6189 64.5137 70.886 64.0081C71.153 63.4995 71.5294 63.1047 72.0152 62.8234C72.501 62.5393 73.0735 62.3973 73.7325 62.3973C74.1985 62.3973 74.6246 62.4697 75.011 62.6146C75.3973 62.7595 75.7311 62.974 76.0124 63.2581C76.2936 63.5422 76.5124 63.893 76.6686 64.3106C76.8249 64.7254 76.903 65.2012 76.903 65.7382V66.2581H71.2141V65.0478H74.9641C74.9612 64.8262 74.9087 64.6288 74.8064 64.4555C74.7041 64.2822 74.5635 64.1473 74.3845 64.0507C74.2084 63.9512 74.0053 63.9015 73.7752 63.9015C73.5422 63.9015 73.3334 63.9541 73.1487 64.0592C72.9641 64.1615 72.8178 64.3021 72.7098 64.4811C72.6019 64.6572 72.545 64.8575 72.5394 65.0819V66.3135C72.5394 66.5805 72.5919 66.8149 72.697 67.0166C72.8021 67.2155 72.9513 67.3703 73.1445 67.4811C73.3377 67.5919 73.5678 67.6473 73.8348 67.6473C74.0195 67.6473 74.1871 67.6217 74.3377 67.5706C74.4882 67.5194 74.6175 67.4441 74.7254 67.3447C74.8334 67.2453 74.9144 67.1231 74.9683 66.9782L76.8817 67.0336C76.8021 67.4626 76.6274 67.8362 76.3575 68.1544C76.0905 68.4697 75.7396 68.7155 75.305 68.8916C74.8703 69.0649 74.3675 69.1515 73.7965 69.1515ZM80.0511 60.3007V69.028H77.9673V60.3007H80.0511Z"/><path fill="#000" d="M91.9531 63.3561H90.0866C90.0525 63.1146 89.9829 62.9001 89.8778 62.7126C89.7727 62.5223 89.6377 62.3603 89.473 62.2268C89.3082 62.0933 89.1178 61.991 88.9019 61.92C88.6889 61.849 88.4573 61.8135 88.2073 61.8135C87.7556 61.8135 87.3622 61.9257 87.0269 62.1501C86.6917 62.3717 86.4318 62.6956 86.2471 63.1217C86.0624 63.545 85.9701 64.0592 85.9701 64.6643C85.9701 65.2865 86.0624 65.8092 86.2471 66.2325C86.4346 66.6558 86.696 66.9754 87.0312 67.1913C87.3664 67.4072 87.7542 67.5152 88.1945 67.5152C88.4417 67.5152 88.6704 67.4825 88.8806 67.4172C89.0937 67.3518 89.2826 67.2566 89.4474 67.1316C89.6122 67.0038 89.7485 66.849 89.8565 66.6672C89.9673 66.4853 90.044 66.278 90.0866 66.045L91.9531 66.0535C91.9048 66.4541 91.784 66.8405 91.5909 67.2126C91.4005 67.5819 91.1434 67.9129 90.8195 68.2055C90.4985 68.4953 90.115 68.7254 89.669 68.8959C89.2258 69.0635 88.7244 69.1473 88.1647 69.1473C87.3863 69.1473 86.6903 68.9711 86.0766 68.6189C85.4659 68.2666 84.9829 67.7566 84.6278 67.089C84.2755 66.4214 84.0994 65.6132 84.0994 64.6643C84.0994 63.7126 84.2784 62.903 84.6363 62.2353C84.9943 61.5677 85.4801 61.0592 86.0937 60.7098C86.7073 60.3575 87.3977 60.1814 88.1647 60.1814C88.6704 60.1814 89.1391 60.2524 89.571 60.3944C90.0056 60.5365 90.3906 60.7439 90.7258 61.0166C91.061 61.2865 91.3338 61.6174 91.544 62.0095C91.757 62.4015 91.8934 62.8504 91.9531 63.3561ZM96.1995 69.1558C95.5376 69.1558 94.9651 69.0152 94.4822 68.7339C94.0021 68.4498 93.6313 68.0549 93.37 67.5493C93.1086 67.0407 92.9779 66.4512 92.9779 65.7808C92.9779 65.1047 93.1086 64.5137 93.37 64.0081C93.6313 63.4995 94.0021 63.1047 94.4822 62.8234C94.9651 62.5393 95.5376 62.3973 96.1995 62.3973C96.8615 62.3973 97.4325 62.5393 97.9126 62.8234C98.3955 63.1047 98.7677 63.4995 99.0291 64.0081C99.2904 64.5137 99.4211 65.1047 99.4211 65.7808C99.4211 66.4512 99.2904 67.0407 99.0291 67.5493C98.7677 68.0549 98.3955 68.4498 97.9126 68.7339C97.4325 69.0152 96.8615 69.1558 96.1995 69.1558ZM96.208 67.7495C96.5092 67.7495 96.7606 67.6643 96.9623 67.4939C97.164 67.3206 97.316 67.0848 97.4183 66.7865C97.5234 66.4882 97.5759 66.1487 97.5759 65.768C97.5759 65.3873 97.5234 65.0478 97.4183 64.7495C97.316 64.4512 97.164 64.2155 96.9623 64.0422C96.7606 63.8689 96.5092 63.7822 96.208 63.7822C95.9041 63.7822 95.6484 63.8689 95.441 64.0422C95.2365 64.2155 95.0816 64.4512 94.9765 64.7495C94.8742 65.0478 94.8231 65.3873 94.8231 65.768C94.8231 66.1487 94.8742 66.4882 94.9765 66.7865C95.0816 67.0848 95.2365 67.3206 95.441 67.4939C95.6484 67.6643 95.9041 67.7495 96.208 67.7495ZM102.417 65.2439V69.028H100.602V62.4825H102.332V63.6373H102.408C102.553 63.2566 102.796 62.9555 103.137 62.7339C103.478 62.5095 103.891 62.3973 104.377 62.3973C104.832 62.3973 105.228 62.4967 105.566 62.6956C105.904 62.8944 106.167 63.1785 106.354 63.5478C106.542 63.9143 106.636 64.3518 106.636 64.8603V69.028H104.82V65.1842C104.823 64.7836 104.721 64.4711 104.513 64.2467C104.306 64.0194 104.021 63.9058 103.657 63.9058C103.413 63.9058 103.197 63.9584 103.009 64.0635C102.825 64.1686 102.68 64.322 102.575 64.5237C102.472 64.7226 102.42 64.9626 102.417 65.2439ZM109.882 65.2439V69.028H108.066V62.4825H109.796V63.6373H109.873C110.018 63.2566 110.261 62.9555 110.602 62.7339C110.943 62.5095 111.356 62.3973 111.842 62.3973C112.296 62.3973 112.693 62.4967 113.031 62.6956C113.369 62.8944 113.632 63.1785 113.819 63.5478C114.007 63.9143 114.1 64.3518 114.1 64.8603V69.028H112.285V65.1842C112.288 64.7836 112.186 64.4711 111.978 64.2467C111.771 64.0194 111.485 63.9058 111.122 63.9058C110.877 63.9058 110.662 63.9584 110.474 64.0635C110.289 64.1686 110.144 64.322 110.039 64.5237C109.937 64.7226 109.885 64.9626 109.882 65.2439ZM118.514 69.1558C117.841 69.1558 117.261 69.0194 116.776 68.7467C116.293 68.4711 115.92 68.0819 115.659 67.5791C115.398 67.0734 115.267 66.4754 115.267 65.7851C115.267 65.1118 115.398 64.5209 115.659 64.0123C115.92 63.5038 116.288 63.1075 116.763 62.8234C117.24 62.5393 117.8 62.3973 118.442 62.3973C118.874 62.3973 119.276 62.4669 119.648 62.6061C120.023 62.7424 120.349 62.9484 120.628 63.224C120.909 63.4995 121.128 63.8461 121.284 64.2637C121.44 64.6785 121.518 65.1643 121.518 65.7211V66.2197H115.991V65.0947H119.81C119.81 64.8334 119.753 64.6018 119.639 64.4001C119.526 64.1984 119.368 64.0407 119.166 63.9271C118.967 63.8106 118.736 63.7524 118.472 63.7524C118.196 63.7524 117.952 63.8163 117.739 63.9441C117.528 64.0691 117.364 64.2382 117.244 64.4512C117.125 64.6615 117.064 64.8959 117.061 65.1544V66.224C117.061 66.5478 117.121 66.8277 117.24 67.0635C117.362 67.2993 117.534 67.4811 117.756 67.6089C117.977 67.7368 118.24 67.8007 118.544 67.8007C118.746 67.8007 118.93 67.7723 119.098 67.7155C119.266 67.6586 119.409 67.5734 119.528 67.4598C119.648 67.3461 119.739 67.2069 119.801 67.0422L121.48 67.153C121.395 67.5564 121.22 67.9086 120.956 68.2098C120.695 68.5081 120.356 68.741 119.942 68.9086C119.53 69.0734 119.054 69.1558 118.514 69.1558ZM125.66 69.1558C124.99 69.1558 124.413 69.0137 123.93 68.7297C123.45 68.4427 123.081 68.045 122.822 67.5365C122.567 67.028 122.439 66.4427 122.439 65.7808C122.439 65.1103 122.568 64.5223 122.827 64.0166C123.088 63.5081 123.459 63.1118 123.939 62.8277C124.419 62.5407 124.99 62.3973 125.652 62.3973C126.223 62.3973 126.723 62.501 127.152 62.7084C127.581 62.9157 127.92 63.2069 128.17 63.5819C128.42 63.9569 128.558 64.3973 128.584 64.903H126.871C126.822 64.5762 126.695 64.3135 126.487 64.1146C126.283 63.9129 126.014 63.812 125.682 63.812C125.401 63.812 125.155 63.8887 124.945 64.0422C124.737 64.1927 124.575 64.4129 124.459 64.7027C124.342 64.9924 124.284 65.3433 124.284 65.7552C124.284 66.1728 124.341 66.528 124.454 66.8206C124.571 67.1132 124.734 67.3362 124.945 67.4896C125.155 67.643 125.401 67.7197 125.682 67.7197C125.889 67.7197 126.075 67.6771 126.24 67.5919C126.408 67.5066 126.545 67.3831 126.653 67.2211C126.764 67.0564 126.837 66.8589 126.871 66.6288H128.584C128.555 67.1288 128.419 67.5691 128.175 67.9498C127.933 68.3277 127.599 68.6231 127.173 68.8362C126.747 69.0493 126.243 69.1558 125.66 69.1558ZM133.228 62.4825V63.8461H129.286V62.4825H133.228ZM130.181 60.9143H131.996V67.0166C131.996 67.1842 132.022 67.3149 132.073 67.4086C132.124 67.4995 132.195 67.5635 132.286 67.6004C132.38 67.6373 132.488 67.6558 132.61 67.6558C132.695 67.6558 132.78 67.6487 132.865 67.6345C132.951 67.6174 133.016 67.6047 133.061 67.5961L133.347 68.947C133.256 68.9754 133.128 69.0081 132.963 69.045C132.799 69.0848 132.598 69.1089 132.363 69.1174C131.925 69.1345 131.541 69.0762 131.212 68.9427C130.885 68.8092 130.631 68.6018 130.449 68.3206C130.267 68.0393 130.178 67.6842 130.181 67.2552V60.9143Z"/><path stroke="#000" stroke-linecap="round" stroke-linejoin="round" stroke-width="3" d="M76.9134 41.554L56.52 37.7743M70.3632 47.4593L78.1869 48.9093C82.546 49.7172 86.6614 47.2878 87.365 43.4911C88.0687 39.6945 85.0973 35.9516 80.7382 35.1437L72.9145 33.6937M63.163 31.8864L55.2464 30.4191C50.8873 29.6112 46.772 32.0406 46.0683 35.8373C45.3647 39.6339 48.336 43.3768 52.6951 44.1847L60.6117 45.6519"/><path stroke="#000" stroke-width="3" d="M14.0183 45.3643C10.918 44.7897 8.87491 41.7866 9.455 38.6567L13.0795 19.1008C13.6596 15.971 16.6432 13.8995 19.7435 14.4741L34.0151 17.1192C37.1155 17.6938 39.1586 20.6969 38.5785 23.8268L34.954 43.3827C34.3739 46.5126 31.3903 48.584 28.29 48.0094L14.0183 45.3643Z"/><path stroke="#000" stroke-width="3" d="M2.47345 51.558C2.21197 52.9688 3.13291 54.3225 4.53043 54.5815L33.8835 60.0218C35.281 60.2808 36.6259 59.3471 36.8874 57.9362C37.1489 56.5254 36.2279 55.1717 34.8304 54.9127L5.47734 49.4724C4.07982 49.2134 2.73494 50.1471 2.47345 51.558Z"/><path stroke="#000" stroke-width="3" d="M11.185 4.55453C10.9235 5.96537 11.8445 7.31904 13.242 7.57806L42.5951 13.0183C43.9926 13.2773 45.3375 12.3436 45.5989 10.9328C45.8604 9.52195 44.9395 8.16827 43.542 7.90925L14.1889 2.46899C12.7914 2.20997 11.4465 3.1437 11.185 4.55453Z"/></svg>